<svg xmlns="http://www.w3.org/2000/svg" viewBox="0 0 279.44 395.92"><defs><style>.cls-1,.cls-10{fill:#fff;}.cls-1,.cls-2,.cls-3{stroke:#fff;stroke-width:0.97px;}.cls-1,.cls-2,.cls-3,.cls-8,.cls-9{stroke-miterlimit:10;}.cls-2{fill:#d2f4f7;}.cls-3,.cls-6{fill:#43b2b5;}.cls-4{fill:#052f30;}.cls-5{fill:#ffd2e9;}.cls-7{fill:#bde7f4;opacity:0.11;}.cls-8{fill:none;}.cls-8,.cls-9{stroke:#042633;stroke-width:2.92px;}.cls-9{fill:#042633;}</style></defs><title>Asset 8</title><g id="Layer_2" data-name="Layer 2"><g id="Layer_3" data-name="Layer 3"><path class="cls-1" d="M72.93,293.86s-6,97.75,9,101,18-19.47,18-19.47V296.7Z"/><path class="cls-1" d="M148.76,308.87s-6.42,81.76,9.86,86.31,16.71-53.05,16.71-53.05V300.35Z"/><path class="cls-2" d="M208,103.11s41.54-5.71,40.87,38.69c0,0,25.46-3.17,29.48,29.18s-11.39,43.13-20.1,43.13c0,0,14.74,39.33-8,57.09s-52.26,11.42-52.26,11.42-2.68,33.62-28.14,36.79-37.52-23.47-37.52-23.47-15.41,22.2-34.84,20.93S65.91,289.6,65.91,289.6,35.76,306.72,21,280.72s-8-53.92,0-56.46c0,0-26.13-15.22-19.43-43.77s25.46-34.25,25.46-34.25,1.34-33.62,28.81-38.69,37.52,14,37.52,14,13.4-17.6,35.51-18.63,27.47,12.29,27.47,12.29,2.68-19,18.76-20.94S205.27,94.22,208,103.11Z"/><path class="cls-1" d="M88.32,72.32S53.85,172.47,104.1,206.61s88.44-58.47,88.44-58.47V78.37Z"/><path class="cls-3" d="M89.9,75.27s-77.78,41.87-62.85,71c14.06,27.42,52.36-33.34,64.81-59.87C95.18,79.29,89.9,75.27,89.9,75.27Z"/><path class="cls-3" d="M187.66,91.31s-5.22,60.71,22.42,69.84,8.6-33.81,8.6-33.81l-26.14-50.1S191.57,90.33,187.66,91.31Z"/><path class="cls-2" d="M106,50.25s-29.16-9.7-26.59,14.66,32,10.36,32,10.36S99.58,101.56,122.47,98.7s19.86-18.17,19.86-18.17,15.15,21.35,37.7,15.3,7.24-34.74,7.24-34.74,11.62-2.23,10.94-15S176,36.23,176,36.23s-7.07-10.52-23.22-8.92-16.5,10.51-16.5,10.51-10.44-8.28-20.2-4.46S106,50.25,106,50.25Z"/><ellipse class="cls-3" cx="91.86" cy="126.19" rx="15.8" ry="14.96"/><ellipse class="cls-3" cx="150.28" cy="130" rx="15.8" ry="14.96"/><ellipse class="cls-3" cx="90.15" cy="125.24" rx="6.09" ry="5.76"/><ellipse class="cls-3" cx="148.12" cy="129.05" rx="6.09" ry="5.76"/><path class="cls-4" d="M132.39,193.78c4.47-11.18,1.71-26.16.83-28.53-2.78-7.51-13.67-6.87-15.85-6.48s-12.27,1.56-14.17,13.34c0,0-3.15,10.35-1.4,19.44C106.8,188.88,118.14,185,132.39,193.78Z"/><path class="cls-5" d="M116.23,204.88c8.47.82,13.43-4.29,16.16-11.1-14.25-8.77-25.59-4.9-30.59-2.23C103.06,198.09,106.86,204,116.23,204.88Z"/><path class="cls-3" d="M112.46,166.86,102,155.4a2.58,2.58,0,0,1,.34-3.82l2.06-1.62a3,3,0,0,1,4,.33L112,154.4a2.94,2.94,0,0,0,3.58.59l7.63-4.14a2.93,2.93,0,0,1,3.75.82l2.17,3a2.58,2.58,0,0,1-.61,3.62l-12.17,8.91A3,3,0,0,1,112.46,166.86Z"/><path class="cls-6" d="M146.94,102.13a18.73,18.73,0,0,1,5.29-6.56,11,11,0,0,1,3.84-2,5.05,5.05,0,0,1,1.08-.22,4.1,4.1,0,0,1,1.1-.1c.37,0,.74,0,1.11,0l1.09.19a10.63,10.63,0,0,1,6.86,5,16.5,16.5,0,0,1,2.29,8.11,21.15,21.15,0,0,0-1.06-4,15.64,15.64,0,0,0-1.86-3.67A10.66,10.66,0,0,0,163.87,96a10.24,10.24,0,0,0-1.73-1c-.3-.14-.63-.22-.94-.34a4,4,0,0,0-1-.26l-1-.18-1,0a4,4,0,0,0-1,.07,7.71,7.71,0,0,0-1,.18,11.67,11.67,0,0,0-3.65,1.7,16.94,16.94,0,0,0-3.1,2.71A23.58,23.58,0,0,0,146.94,102.13Z"/><path class="cls-6" d="M85,95.69a19,19,0,0,1,5.29-6.56,11.1,11.1,0,0,1,3.85-2,5.49,5.49,0,0,1,1.07-.22,4.1,4.1,0,0,1,1.1-.1h1.11l1.09.19a10.61,10.61,0,0,1,6.86,5,16.39,16.39,0,0,1,2.29,8.1,20.43,20.43,0,0,0-1.06-4,16.2,16.2,0,0,0-1.85-3.67,11,11,0,0,0-2.81-2.87,10.65,10.65,0,0,0-1.73-1c-.31-.13-.63-.22-.95-.34a4.54,4.54,0,0,0-1-.26l-1-.18-1,0a3.65,3.65,0,0,0-1,.08,5.45,5.45,0,0,0-1,.18,11.43,11.43,0,0,0-3.65,1.69,16.94,16.94,0,0,0-3.1,2.71A25,25,0,0,0,85,95.69Z"/><path class="cls-7" d="M58.24,214.91s-77.82-39.17-45.19-137c24.09-72.2,126.14-93.7,193.12-62.66s86.77,165.27-33.69,212C172.48,227.23,115.94,236.88,58.24,214.91Z"/><path class="cls-8" d="M58.24,214.91s-77.82-39.17-45.19-137c24.09-72.2,126.14-93.7,193.12-62.66s86.77,165.27-33.69,212C172.48,227.23,115.94,236.88,58.24,214.91Z"/><path class="cls-9" d="M51.48,210.79s-2.88,10.09,0,11.55,98.33,33.52,147,2.91L201,213S149.3,248.21,51.48,210.79Z"/><path class="cls-10" d="M210.33,31.12a29.25,29.25,0,0,1,7.59,3.57,31.85,31.85,0,0,1,6.43,5.51,24.25,24.25,0,0,1,4.46,7.24l.7,2c.16.69.28,1.39.42,2.08l.19,1,0,1.06c0,.7,0,1.4.05,2.09-.18-.68-.34-1.35-.49-2l-.22-1-.34-1c-.23-.65-.42-1.3-.66-1.93L227.64,48a16.93,16.93,0,0,0-1-1.78,15.81,15.81,0,0,0-1.07-1.71l-1.17-1.65-1.31-1.54a43.36,43.36,0,0,0-5.94-5.54A61.76,61.76,0,0,0,210.33,31.12Z"/></g></g></svg>