<svg xmlns="http://www.w3.org/2000/svg" viewBox="0 0 279.44 401.37"><defs><style>.cls-1,.cls-11{fill:#fff;}.cls-1,.cls-2,.cls-3,.cls-4{stroke:#fff;stroke-width:0.97px;}.cls-1,.cls-10,.cls-2,.cls-3,.cls-4,.cls-9{stroke-miterlimit:10;}.cls-2,.cls-6{fill:#ffd2e9;}.cls-3,.cls-7{fill:#ea75bb;}.cls-4,.cls-9{fill:none;}.cls-5{fill:#052f30;}.cls-8{fill:#bde7f4;opacity:0.11;}.cls-10,.cls-9{stroke:#042633;stroke-width:2.92px;}.cls-10{fill:#042633;}</style></defs><title>Asset 7</title><g id="Layer_2" data-name="Layer 2"><g id="Layer_3" data-name="Layer 3"><path class="cls-1" d="M72.93,299.31s-6,97.76,9,101,18-19.47,18-19.47V302.15Z"/><path class="cls-1" d="M148.76,314.32s-6.42,81.76,9.86,86.31,16.71-53.05,16.71-53.05V305.8Z"/><path class="cls-2" d="M208,108.56s41.54-5.71,40.87,38.69c0,0,25.46-3.17,29.48,29.18s-11.39,43.14-20.1,43.14c0,0,14.74,39.33-8,57.09s-52.26,11.42-52.26,11.42-2.68,33.61-28.14,36.79-37.52-23.47-37.52-23.47-15.41,22.2-34.84,20.93-31.49-27.28-31.49-27.28S35.76,312.18,21,286.17s-8-53.92,0-56.45c0,0-26.13-15.23-19.43-43.77S27.05,151.7,27.05,151.7s1.34-33.62,28.81-38.7,37.52,14,37.52,14,13.4-17.61,35.51-18.64,27.47,12.29,27.47,12.29,2.68-19,18.76-20.93S205.27,99.68,208,108.56Z"/><path class="cls-1" d="M88.32,77.78S53.85,177.93,104.1,212.07s88.44-58.47,88.44-58.47V83.82Z"/><path class="cls-3" d="M89.9,80.73s-77.78,41.87-62.85,71c14.06,27.42,52.36-33.35,64.81-59.88C95.18,84.75,89.9,80.73,89.9,80.73Z"/><path class="cls-3" d="M187.66,96.77s-5.22,60.71,22.42,69.84,8.6-33.81,8.6-33.81L192.54,82.7S191.57,95.78,187.66,96.77Z"/><path class="cls-2" d="M106,55.71S76.81,46,79.38,70.37s32,10.36,32,10.36S99.58,107,122.47,104.15,142.33,86,142.33,86s15.15,21.35,37.7,15.29,7.24-34.74,7.24-34.74,11.62-2.23,10.94-15S176,41.68,176,41.68s-7.07-10.51-23.22-8.92-16.5,10.52-16.5,10.52-10.44-8.29-20.2-4.46S106,55.71,106,55.71Z"/><ellipse class="cls-3" cx="91.86" cy="131.65" rx="15.8" ry="14.96"/><ellipse class="cls-3" cx="150.28" cy="135.46" rx="15.8" ry="14.96"/><ellipse class="cls-4" cx="89.9" cy="131.65" rx="6.09" ry="5.76"/><ellipse class="cls-4" cx="149.02" cy="135.46" rx="6.09" ry="5.76"/><path class="cls-5" d="M132.18,203.09c4.47-11.19,1.71-26.17.83-28.54-2.78-7.5-13.67-6.86-15.85-6.47s-12.27,1.55-14.17,13.34c0,0-3.15,10.35-1.4,19.43C106.59,198.19,117.93,194.31,132.18,203.09Z"/><path class="cls-6" d="M116,214.19c8.47.81,13.43-4.3,16.16-11.1-14.25-8.78-25.59-4.9-30.59-2.24C102.85,207.39,106.65,213.28,116,214.19Z"/><path class="cls-3" d="M112.26,176.17l-10.5-11.46a2.58,2.58,0,0,1,.33-3.83l2.06-1.62a3,3,0,0,1,4,.34l3.66,4.1a2.94,2.94,0,0,0,3.57.6l7.63-4.15a2.93,2.93,0,0,1,3.75.83l2.17,3a2.59,2.59,0,0,1-.61,3.63l-12.17,8.9A3,3,0,0,1,112.26,176.17Z"/><path class="cls-7" d="M147,107.68a18.67,18.67,0,0,1,5.29-6.57,11.14,11.14,0,0,1,3.84-2,5.59,5.59,0,0,1,1.08-.22,5.12,5.12,0,0,1,1.1-.1h1.11l1.09.2a10.56,10.56,0,0,1,6.86,5,16.49,16.49,0,0,1,2.29,8.1,21.15,21.15,0,0,0-1.06-4,15.57,15.57,0,0,0-1.86-3.66,10.7,10.7,0,0,0-2.81-2.88,11,11,0,0,0-1.73-1c-.3-.13-.63-.22-.94-.33a3.6,3.6,0,0,0-1-.26l-1-.19-1,0a3.58,3.58,0,0,0-1,.08,5.3,5.3,0,0,0-1,.18,11.33,11.33,0,0,0-3.65,1.69,17.32,17.32,0,0,0-3.1,2.71A24.29,24.29,0,0,0,147,107.68Z"/><path class="cls-7" d="M85.1,101.24a18.9,18.9,0,0,1,5.29-6.57,11.32,11.32,0,0,1,3.84-2,5.75,5.75,0,0,1,1.08-.22,5.12,5.12,0,0,1,1.1-.1c.37,0,.74,0,1.11,0l1.09.19a10.56,10.56,0,0,1,6.86,5,16.39,16.39,0,0,1,2.29,8.11,20.53,20.53,0,0,0-1.06-4A16.13,16.13,0,0,0,104.85,98,11,11,0,0,0,102,95.12a11.44,11.44,0,0,0-1.73-1c-.31-.13-.63-.22-1-.33a4,4,0,0,0-1-.26l-1-.19-1,0a4,4,0,0,0-1,.08,5.3,5.3,0,0,0-1,.18,11.45,11.45,0,0,0-3.65,1.7,17.27,17.27,0,0,0-3.1,2.7A25.1,25.1,0,0,0,85.1,101.24Z"/><path class="cls-8" d="M56.06,214.91s-77.82-39.17-45.18-137C35,5.72,137-15.78,204,15.26s86.77,165.27-33.7,212C170.3,227.23,113.77,236.88,56.06,214.91Z"/><path class="cls-9" d="M56.06,214.91s-77.82-39.17-45.18-137C35,5.72,137-15.78,204,15.26s86.77,165.27-33.7,212C170.3,227.23,113.77,236.88,56.06,214.91Z"/><path class="cls-10" d="M49.3,210.79s-2.87,10.09,0,11.55,98.33,33.52,147,2.91L198.84,213S147.12,248.21,49.3,210.79Z"/><path class="cls-11" d="M208.16,31.12a29.25,29.25,0,0,1,7.59,3.57,31.85,31.85,0,0,1,6.43,5.51,24,24,0,0,1,4.45,7.24l.7,2c.17.69.29,1.39.43,2.08l.18,1,.05,1.06c0,.7,0,1.4,0,2.09-.17-.68-.34-1.35-.49-2l-.22-1-.34-1c-.22-.65-.42-1.3-.66-1.93L225.47,48a16.93,16.93,0,0,0-1-1.78,14.47,14.47,0,0,0-1.08-1.71l-1.16-1.65L221,41.27a43.44,43.44,0,0,0-6-5.54A62.57,62.57,0,0,0,208.16,31.12Z"/></g></g></svg>