<svg xmlns="http://www.w3.org/2000/svg" viewBox="0 0 279.44 369.26"><defs><style>.cls-1{fill:#fff;}.cls-1,.cls-2,.cls-3,.cls-4{stroke:#fff;stroke-miterlimit:10;stroke-width:0.97px;}.cls-2,.cls-6{fill:#ffd2e9;}.cls-3,.cls-7{fill:#ea75bb;}.cls-4{fill:none;}.cls-5{fill:#052f30;}</style></defs><title>Asset 11</title><g id="Layer_2" data-name="Layer 2"><g id="Layer_3" data-name="Layer 3"><path class="cls-1" d="M72.93,267.2s-6,97.76,9,101,18-19.47,18-19.47V270Z"/><path class="cls-1" d="M148.76,282.21s-6.42,81.76,9.86,86.31,16.71-53,16.71-53V273.69Z"/><path class="cls-2" d="M208,76.45s41.54-5.71,40.87,38.69c0,0,25.46-3.17,29.48,29.18s-11.39,43.14-20.1,43.14c0,0,14.74,39.33-8,57.09S197.9,256,197.9,256s-2.68,33.61-28.14,36.79-37.52-23.47-37.52-23.47-15.41,22.2-34.84,20.93-31.49-27.28-31.49-27.28S35.76,280.07,21,254.06s-8-53.92,0-56.45c0,0-26.13-15.23-19.43-43.77s25.46-34.25,25.46-34.25S28.39,86,55.86,80.89s37.52,14,37.52,14,13.4-17.61,35.51-18.64S156.36,88.5,156.36,88.5s2.68-19,18.76-20.93S205.27,67.57,208,76.45Z"/><path class="cls-1" d="M88.32,45.67S53.85,145.82,104.1,180s88.44-58.47,88.44-58.47V51.71Z"/><path class="cls-3" d="M89.9,48.62s-77.78,41.87-62.85,71C41.11,147,79.41,86.24,91.86,59.71,95.18,52.63,89.9,48.62,89.9,48.62Z"/><path class="cls-3" d="M187.66,64.66s-5.22,60.71,22.42,69.84,8.6-33.81,8.6-33.81l-26.14-50.1S191.57,63.67,187.66,64.66Z"/><path class="cls-2" d="M106,23.6S76.81,13.89,79.38,38.26s32,10.36,32,10.36S99.58,74.91,122.47,72s19.86-18.16,19.86-18.16S157.48,75.23,180,69.17s7.24-34.74,7.24-34.74,11.62-2.23,10.94-15S176,9.57,176,9.57,168.92-.94,152.77.65s-16.5,10.52-16.5,10.52-10.44-8.29-20.2-4.46S106,23.6,106,23.6Z"/><ellipse class="cls-3" cx="91.86" cy="99.53" rx="15.8" ry="14.96"/><ellipse class="cls-3" cx="150.28" cy="103.35" rx="15.8" ry="14.96"/><ellipse class="cls-4" cx="89.9" cy="99.53" rx="6.09" ry="5.76"/><ellipse class="cls-4" cx="149.02" cy="103.35" rx="6.09" ry="5.76"/><path class="cls-5" d="M132.18,171c4.47-11.19,1.71-26.17.83-28.54-2.78-7.5-13.67-6.86-15.85-6.47s-12.27,1.55-14.17,13.34c0,0-3.15,10.35-1.4,19.43C106.59,166.08,117.93,162.2,132.18,171Z"/><path class="cls-6" d="M116,182.08c8.47.81,13.43-4.3,16.16-11.1-14.25-8.78-25.59-4.9-30.59-2.24C102.85,175.28,106.65,181.17,116,182.08Z"/><path class="cls-3" d="M112.26,144.06l-10.5-11.46a2.58,2.58,0,0,1,.33-3.83l2.06-1.62a3,3,0,0,1,4,.34l3.66,4.1a2.94,2.94,0,0,0,3.57.6L123,128a2.93,2.93,0,0,1,3.75.83l2.17,3a2.59,2.59,0,0,1-.61,3.63l-12.17,8.9A3,3,0,0,1,112.26,144.06Z"/><path class="cls-7" d="M147,75.56A18.73,18.73,0,0,1,152.33,69a11.14,11.14,0,0,1,3.84-2,5.59,5.59,0,0,1,1.08-.22,5.12,5.12,0,0,1,1.1-.1h1.11l1.09.2a10.56,10.56,0,0,1,6.86,5A16.49,16.49,0,0,1,169.7,80a21.15,21.15,0,0,0-1.06-4,15.57,15.57,0,0,0-1.86-3.66A10.7,10.7,0,0,0,164,69.45a11,11,0,0,0-1.73-1c-.3-.13-.63-.22-.94-.33a3.6,3.6,0,0,0-1-.26l-1-.19-1,0a3.58,3.58,0,0,0-1,.08,5.3,5.3,0,0,0-1,.18,11.33,11.33,0,0,0-3.65,1.69,17.32,17.32,0,0,0-3.1,2.71A24.84,24.84,0,0,0,147,75.56Z"/><path class="cls-7" d="M85.1,69.13a18.9,18.9,0,0,1,5.29-6.57,11.32,11.32,0,0,1,3.84-2,5.75,5.75,0,0,1,1.08-.22,5.12,5.12,0,0,1,1.1-.1c.37,0,.74,0,1.11,0l1.09.19a10.56,10.56,0,0,1,6.86,5,16.39,16.39,0,0,1,2.29,8.1,20.62,20.62,0,0,0-1.06-4,16.13,16.13,0,0,0-1.85-3.66A11,11,0,0,0,102,63a11.44,11.44,0,0,0-1.73-1c-.31-.13-.63-.22-1-.33a4,4,0,0,0-1-.26l-1-.19-1,0a4,4,0,0,0-1,.08,5.3,5.3,0,0,0-1,.18,11.45,11.45,0,0,0-3.65,1.7,17.27,17.27,0,0,0-3.1,2.7A25.1,25.1,0,0,0,85.1,69.13Z"/></g></g></svg>