<svg xmlns="http://www.w3.org/2000/svg" viewBox="0 0 279.44 369.26"><defs><style>.cls-1{fill:#fff;}.cls-1,.cls-2,.cls-3,.cls-4{stroke:#fff;stroke-miterlimit:10;stroke-width:0.97px;}.cls-2{fill:#e4e1f9;}.cls-3,.cls-7{fill:#a19ce2;}.cls-4{fill:none;}.cls-5{fill:#052f30;}.cls-6{fill:#ffd2e9;}</style></defs><title>Asset 9</title><g id="Layer_2" data-name="Layer 2"><g id="Layer_3" data-name="Layer 3"><path class="cls-1" d="M72.93,267.2s-6,97.76,9,101,18-19.47,18-19.47V270Z"/><path class="cls-1" d="M148.76,282.21s-6.42,81.76,9.86,86.31,16.71-53,16.71-53V273.69Z"/><path class="cls-2" d="M208,76.45s41.54-5.71,40.87,38.69c0,0,25.46-3.17,29.48,29.18s-11.39,43.14-20.1,43.14c0,0,14.74,39.33-8,57.09S197.9,256,197.9,256s-2.68,33.61-28.14,36.79-37.52-23.47-37.52-23.47-15.41,22.2-34.84,20.93-31.49-27.28-31.49-27.28S35.76,280.07,21,254.06s-8-53.92,0-56.45c0,0-26.13-15.23-19.43-43.77s25.46-34.25,25.46-34.25S28.39,86,55.86,80.89s37.52,14,37.52,14,13.4-17.61,35.51-18.64S156.36,88.5,156.36,88.5s2.68-19,18.76-20.93S205.27,67.57,208,76.45Z"/><path class="cls-1" d="M88.32,45.67S53.85,145.82,104.1,180s88.44-58.47,88.44-58.47V51.71Z"/><path class="cls-3" d="M89.9,48.62s-77.78,41.87-62.85,71C41.11,147,79.41,86.24,91.86,59.71,95.18,52.63,89.9,48.62,89.9,48.62Z"/><path class="cls-3" d="M187.66,64.66s-5.22,60.71,22.42,69.84,8.6-33.81,8.6-33.81l-26.14-50.1S191.57,63.67,187.66,64.66Z"/><path class="cls-2" d="M106,23.6S76.81,13.89,79.38,38.26s32,10.36,32,10.36S99.58,74.91,122.47,72s19.86-18.16,19.86-18.16S157.48,75.23,180,69.17s7.24-34.74,7.24-34.74,11.62-2.23,10.94-15S176,9.57,176,9.57,168.92-.94,152.77.65s-16.5,10.52-16.5,10.52-10.44-8.29-20.2-4.46S106,23.6,106,23.6Z"/><ellipse class="cls-3" cx="91.86" cy="99.53" rx="15.8" ry="14.96"/><ellipse class="cls-3" cx="150.28" cy="103.35" rx="15.8" ry="14.96"/><ellipse class="cls-4" cx="89.9" cy="99.53" rx="6.09" ry="5.76"/><ellipse class="cls-4" cx="149.02" cy="103.35" rx="6.09" ry="5.76"/><path class="cls-5" d="M132.34,171.25c4.48-11.18,1.72-26.16.84-28.53-2.79-7.51-13.68-6.87-15.86-6.48s-12.27,1.56-14.17,13.34c0,0-3.15,10.35-1.39,19.44C106.75,166.35,118.1,162.48,132.34,171.25Z"/><path class="cls-6" d="M116.18,182.35c8.47.81,13.44-4.3,16.16-11.1-14.24-8.77-25.59-4.9-30.58-2.23C103,175.56,106.82,181.44,116.18,182.35Z"/><path class="cls-3" d="M112.42,144.33l-10.5-11.46a2.6,2.6,0,0,1,.33-3.83l2.07-1.61a3,3,0,0,1,4,.33l3.66,4.1a3,3,0,0,0,3.57.6l7.63-4.14a2.94,2.94,0,0,1,3.76.82l2.16,3a2.58,2.58,0,0,1-.61,3.63l-12.17,8.9A3,3,0,0,1,112.42,144.33Z"/><path class="cls-7" d="M145.75,72.1A18.9,18.9,0,0,1,151,65.53a11.27,11.27,0,0,1,3.85-2,6.46,6.46,0,0,1,1.08-.22,5.06,5.06,0,0,1,1.1-.1c.37,0,.74,0,1.1,0l1.09.19a10.58,10.58,0,0,1,6.87,5,16.49,16.49,0,0,1,2.28,8.11,19.86,19.86,0,0,0-1.06-4,15.35,15.35,0,0,0-1.85-3.66A10.81,10.81,0,0,0,162.69,66,10.65,10.65,0,0,0,161,65c-.3-.14-.63-.23-.94-.34a4.14,4.14,0,0,0-1-.26l-1-.19-1,0a4.14,4.14,0,0,0-1,.08,6.74,6.74,0,0,0-1,.18,11.62,11.62,0,0,0-3.64,1.7,17.33,17.33,0,0,0-3.11,2.7A25.1,25.1,0,0,0,145.75,72.1Z"/><path class="cls-7" d="M83.82,65.66A18.81,18.81,0,0,1,89.1,59.1a11.1,11.1,0,0,1,3.85-2A4.93,4.93,0,0,1,94,56.9a4.07,4.07,0,0,1,1.1-.1c.37,0,.74,0,1.11,0l1.09.19a10.63,10.63,0,0,1,6.86,5,16.6,16.6,0,0,1,2.29,8.11,21.15,21.15,0,0,0-1.06-4,15.64,15.64,0,0,0-1.86-3.67,10.66,10.66,0,0,0-2.81-2.87,10.24,10.24,0,0,0-1.73-1c-.3-.14-.63-.22-.94-.34a4,4,0,0,0-1-.26l-1-.18-1,0a4.13,4.13,0,0,0-1,.07,7.89,7.89,0,0,0-1,.18,11.57,11.57,0,0,0-3.65,1.7,17.33,17.33,0,0,0-3.11,2.71A24.28,24.28,0,0,0,83.82,65.66Z"/></g></g></svg>