<svg xmlns="http://www.w3.org/2000/svg" viewBox="0 0 279.44 400.28"><defs><style>.cls-1,.cls-11{fill:#fff;}.cls-1,.cls-2,.cls-3,.cls-4{stroke:#fff;stroke-width:0.97px;}.cls-1,.cls-10,.cls-2,.cls-3,.cls-4,.cls-9{stroke-miterlimit:10;}.cls-2{fill:#e4e1f9;}.cls-3,.cls-7{fill:#a19ce2;}.cls-4,.cls-9{fill:none;}.cls-5{fill:#052f30;}.cls-6{fill:#ffd2e9;}.cls-8{fill:#bde7f4;opacity:0.11;}.cls-10,.cls-9{stroke:#042633;stroke-width:2.92px;}.cls-10{fill:#042633;}</style></defs><title>Asset 6</title><g id="Layer_2" data-name="Layer 2"><g id="Layer_3" data-name="Layer 3"><path class="cls-1" d="M72.93,298.22s-6,97.76,9,101,18-19.47,18-19.47V301.06Z"/><path class="cls-1" d="M148.76,313.23s-6.42,81.76,9.86,86.31,16.71-53.05,16.71-53.05V304.71Z"/><path class="cls-2" d="M208,107.47s41.54-5.71,40.87,38.69c0,0,25.46-3.17,29.48,29.18s-11.39,43.13-20.1,43.13c0,0,14.74,39.33-8,57.09S197.9,287,197.9,287s-2.68,33.62-28.14,36.79-37.52-23.47-37.52-23.47-15.41,22.2-34.84,20.93S65.91,294,65.91,294,35.76,311.09,21,285.08s-8-53.92,0-56.46c0,0-26.13-15.22-19.43-43.77S27.05,150.6,27.05,150.6,28.39,117,55.86,111.91s37.52,14,37.52,14,13.4-17.6,35.51-18.63,27.47,12.29,27.47,12.29,2.68-19,18.76-20.93S205.27,98.59,208,107.47Z"/><path class="cls-1" d="M88.32,76.69S53.85,176.83,104.1,211s88.44-58.48,88.44-58.48V82.73Z"/><path class="cls-3" d="M89.9,79.63s-77.78,41.87-62.85,71C41.11,178,79.41,117.26,91.86,90.73,95.18,83.65,89.9,79.63,89.9,79.63Z"/><path class="cls-3" d="M187.66,95.68s-5.22,60.71,22.42,69.84,8.6-33.81,8.6-33.81L192.54,81.6S191.57,94.69,187.66,95.68Z"/><path class="cls-2" d="M106,54.61s-29.16-9.7-26.59,14.66,32,10.36,32,10.36-11.78,26.3,11.11,23.43,19.86-18.17,19.86-18.17,15.15,21.36,37.7,15.3,7.24-34.74,7.24-34.74,11.62-2.23,10.94-15S176,40.59,176,40.59s-7.07-10.52-23.22-8.92-16.5,10.51-16.5,10.51-10.44-8.28-20.2-4.46S106,54.61,106,54.61Z"/><ellipse class="cls-3" cx="91.86" cy="130.55" rx="15.8" ry="14.96"/><ellipse class="cls-3" cx="150.28" cy="134.36" rx="15.8" ry="14.96"/><ellipse class="cls-4" cx="89.9" cy="130.55" rx="6.09" ry="5.76"/><ellipse class="cls-4" cx="149.02" cy="134.36" rx="6.09" ry="5.76"/><path class="cls-5" d="M132.34,202.26c4.48-11.18,1.72-26.16.84-28.53-2.79-7.5-13.68-6.87-15.86-6.47s-12.27,1.55-14.17,13.34c0,0-3.15,10.35-1.39,19.43C106.75,197.37,118.1,193.49,132.34,202.26Z"/><path class="cls-6" d="M116.18,213.36c8.47.82,13.44-4.29,16.16-11.1-14.24-8.77-25.59-4.89-30.58-2.23C103,206.57,106.82,212.46,116.18,213.36Z"/><path class="cls-3" d="M112.42,175.35l-10.5-11.47a2.59,2.59,0,0,1,.33-3.82l2.07-1.62a2.94,2.94,0,0,1,4,.34l3.66,4.1a3,3,0,0,0,3.57.6l7.63-4.15a3,3,0,0,1,3.76.82l2.16,3a2.59,2.59,0,0,1-.61,3.63l-12.17,8.9A3,3,0,0,1,112.42,175.35Z"/><path class="cls-7" d="M145.75,103.12A18.9,18.9,0,0,1,151,96.55a11.1,11.1,0,0,1,3.85-2,5.59,5.59,0,0,1,1.08-.22,5.06,5.06,0,0,1,1.1-.1h1.1l1.09.2a10.58,10.58,0,0,1,6.87,5,16.48,16.48,0,0,1,2.28,8.1,19.76,19.76,0,0,0-1.06-4,15.17,15.17,0,0,0-1.85-3.66A10.85,10.85,0,0,0,162.69,97,11.44,11.44,0,0,0,161,96c-.3-.13-.63-.22-.94-.33a3.7,3.7,0,0,0-1-.26l-1-.19-1,0a3.68,3.68,0,0,0-1,.08,5.62,5.62,0,0,0-1,.18,11.38,11.38,0,0,0-3.64,1.69,17.39,17.39,0,0,0-3.11,2.71A25.1,25.1,0,0,0,145.75,103.12Z"/><path class="cls-7" d="M83.82,96.68a18.76,18.76,0,0,1,5.28-6.57,11.46,11.46,0,0,1,3.85-2A5.59,5.59,0,0,1,94,87.91a5.06,5.06,0,0,1,1.1-.1c.37,0,.74,0,1.11,0l1.09.19a10.56,10.56,0,0,1,6.86,5,16.6,16.6,0,0,1,2.29,8.1,21.35,21.35,0,0,0-1.06-4,15.76,15.76,0,0,0-1.86-3.66,10.7,10.7,0,0,0-2.81-2.88,11,11,0,0,0-1.73-1c-.3-.13-.63-.22-.94-.33a4,4,0,0,0-1-.26l-1-.19-1,0a4.14,4.14,0,0,0-1,.08,5.35,5.35,0,0,0-1,.18,11.36,11.36,0,0,0-3.65,1.7,17.68,17.68,0,0,0-3.11,2.7A25,25,0,0,0,83.82,96.68Z"/><path class="cls-8" d="M60,214.91s-77.82-39.17-45.18-137c24.09-72.2,126.13-93.7,193.12-62.66s86.76,165.27-33.7,212C174.22,227.23,117.68,236.88,60,214.91Z"/><path class="cls-9" d="M60,214.91s-77.82-39.17-45.18-137c24.09-72.2,126.13-93.7,193.12-62.66s86.76,165.27-33.7,212C174.22,227.23,117.68,236.88,60,214.91Z"/><path class="cls-10" d="M53.22,210.79s-2.87,10.09,0,11.55,98.33,33.52,147,2.91L202.76,213S151,248.21,53.22,210.79Z"/><path class="cls-11" d="M212.08,31.12a29.19,29.19,0,0,1,7.58,3.57,31.9,31.9,0,0,1,6.44,5.51,24.43,24.43,0,0,1,4.45,7.24l.7,2c.17.69.29,1.39.43,2.08l.18,1,0,1.06c0,.7,0,1.4,0,2.09-.18-.68-.34-1.35-.49-2l-.22-1-.34-1c-.23-.65-.42-1.3-.66-1.93L229.39,48a15.34,15.34,0,0,0-1-1.78,13.21,13.21,0,0,0-1.07-1.71l-1.17-1.65-1.3-1.54a44,44,0,0,0-5.95-5.54A62.57,62.57,0,0,0,212.08,31.12Z"/></g></g></svg>