<svg xmlns="http://www.w3.org/2000/svg" viewBox="0 0 457.64 226.04"><defs><style>.cls-1{fill:#0f4484;}.cls-1,.cls-2,.cls-3,.cls-4{stroke:#fff;stroke-miterlimit:10;}.cls-2{fill:#2fa6c1;}.cls-3{fill:#44b5d8;}.cls-4{fill:#8cf9e6;}</style></defs><title>Asset 13</title><g id="Layer_2" data-name="Layer 2"><g id="Layer_4" data-name="Layer 4"><path class="cls-1" d="M31.87,154.78l36.94,50.91s162.93,42.49,312.11,3.14l47.8-58.18Z"/><path class="cls-2" d="M.5,118.28v27.95s49.23,45.05,224.11,45.05,232.53-47.7,232.53-47.7V122.16Z"/><path class="cls-3" d="M100.07,80.87s-144,24.74-85.67,53,257.31,63.17,431,0c0,0,59.17-28.26-88.33-53C357.09,80.87,246.69,141.82,100.07,80.87Z"/><path class="cls-4" d="M222.84,118s108.64,6.18,134.25-37.1c0,0-37.5-80.37-128.27-80.37S100.07,80.87,100.07,80.87,108.9,120.62,222.84,118Z"/><circle class="cls-3" cx="14.01" cy="143.41" r="3.42"/><circle class="cls-3" cx="44.44" cy="156.97" r="3.42"/><circle class="cls-3" cx="74.86" cy="165.98" r="3.42"/><circle class="cls-3" cx="105.29" cy="171.99" r="3.42"/><circle class="cls-3" cx="135.72" cy="175.99" r="3.42"/><circle class="cls-3" cx="166.14" cy="178.99" r="3.42"/><circle class="cls-3" cx="196.57" cy="179.99" r="3.42"/><circle class="cls-3" cx="226.99" cy="180.99" r="3.42"/><circle class="cls-3" cx="257.42" cy="180.99" r="3.42"/><circle class="cls-3" cx="287.84" cy="178.99" r="3.42"/><circle class="cls-3" cx="318.27" cy="175.99" r="3.42"/><circle class="cls-3" cx="348.7" cy="170.98" r="3.42"/><circle class="cls-3" cx="379.12" cy="165.98" r="3.42"/><circle class="cls-3" cx="409.55" cy="156.97" r="3.42"/><circle class="cls-3" cx="438.97" cy="145.41" r="3.42"/></g></g></svg>